<svg viewBox="0 0 336 336" xmlns="http://www.w3.org/2000/svg"><path fill="#38bdf8" d="m40.172 297.47-40.035-136.44 5.2948-5.383c32.663-33.209 48.596-49.315 64.524-65.416 15.918-16.091 31.833-32.178 64.473-65.363l18.322 18.021c-32.663 33.209-48.596 49.315-64.524 65.416-13.155 13.297-26.307 26.593-48.898 49.536l95.579 24.983 77.619-78.917 18.323 18.021-77.62 78.917 26.625 95.375 125.95-125.8 18.162 18.184-146.79 146.61-137.01-37.748zm114.73 4.954-26.442-94.719-95.144-24.869 27.483 93.661 94.103 25.927z"/><path fill="#38bdf8" d="m297.54 133.53-90.069 91.575-18.323-18.022 90.144-91.65 21.402-21.401 18.172 18.172-21.326 21.326z"/><path fill="#38bdf8" d="m254.22 18.754-126.15 128.26-18.322-18.021 126.15-128.26 18.322 18.021z"/><path fill="#38bdf8" d="m332.97 18.102-84.099 85.505-18.322-18.021 84.099-85.505 18.322 18.021z"/></svg>